# xmcd
# 
# Track frame offsets:
#     150
#     24902
#     42716
#     55747
#     71455
#     89285
#     104071
#     119649
#     127264
#     140515
#     156909
#     174444
#     189453
#     202350
#     218037
#     231776
# 
# Disc length: 3292
# 
# Revision: 3
# Processed by: cddbd v1.5.2PL0 Copyright (c) Steve Scherf et al.
# Submitted via: fre:ac v1.0.31
# 
DISCID=f60cda10
DTITLE=Eric Bibb - Lead Belly`s Gold - Live At The Sunset And More
DYEAR=2015
DGENRE=Blues
TTITLE0=Grey Goose (Live)
TTITLE1=When That Train Comes Along/Swing Low, Sweet Chariot (Live)
TTITLE2=On A Monday (Live)
TTITLE3=The House Of The Rising Sun (Live)
TTITLE4=Midnight Special (Live)
TTITLE5=Bring A little Water, Sylvie (Live)
TTITLE6=Where Did You Sleep Last Night (Live)
TTITLE7=When I Get To Dallas (Live)
TTITLE8=Pick A Bale Of Cotton (Live)
TTITLE9=Good Night, Irene (Live)
TTITLE10=Rock Island Line (Live)
TTITLE11=Bourgeois Blues
TTITLE12=Chauffeur Blues
TTITLE13=Stewball
TTITLE14=Titanic
TTITLE15=Swimmin' In A River Of Songs
EXTD=YEAR: 2015
EXTT0=
EXTT1=
EXTT2=
EXTT3=
EXTT4=
EXTT5=
EXTT6=
EXTT7=
EXTT8=
EXTT9=
EXTT10=
EXTT11=
EXTT12=
EXTT13=
EXTT14=
EXTT15=
PLAYORDER=
